<svg xmlns="http://www.w3.org/2000/svg" xmlns:xlink="http://www.w3.org/1999/xlink" width="250" zoomAndPan="magnify" viewBox="0 0 187.5 187.499992" height="250" preserveAspectRatio="xMidYMid meet" version="1.0"><path fill="#804aff" d="M 88.28125 127.351562 L 112.53125 103.085938 L 121.109375 111.671875 L 97.273438 135.523438 C 97.15625 135.636719 97.019531 135.695312 96.859375 135.695312 C 96.695312 135.695312 96.558594 135.636719 96.445312 135.523438 Z M 88.28125 127.351562 " fill-opacity="1" fill-rule="nonzero"/><path fill="#804aff" d="M 121.066406 53.992188 L 112.488281 45.40625 L 68.042969 89.878906 C 63.289062 94.636719 63.277344 102.332031 68.015625 107.074219 L 73.851562 112.910156 L 81.589844 120.65625 L 82.429688 121.492188 L 121.113281 82.785156 L 112.535156 74.203125 L 82.453125 104.300781 L 79.816406 101.664062 C 79.605469 101.453125 79.417969 101.226562 79.253906 100.976562 C 79.089844 100.730469 78.949219 100.46875 78.835938 100.195312 C 78.722656 99.921875 78.636719 99.640625 78.578125 99.347656 C 78.519531 99.054688 78.492188 98.761719 78.492188 98.464844 C 78.492188 98.167969 78.519531 97.875 78.578125 97.582031 C 78.636719 97.292969 78.722656 97.007812 78.835938 96.734375 C 78.949219 96.460938 79.089844 96.199219 79.253906 95.953125 C 79.417969 95.707031 79.605469 95.476562 79.816406 95.265625 Z M 121.066406 53.992188 " fill-opacity="1" fill-rule="nonzero"/></svg>